%
M48
M72
T01C0.03150
T02C0.03200
T03C0.03937
T04C0.04000
T05C0.05900
T06C0.07874
T07C0.11811
%
T01
X151000Y85750
X151000Y95750
X151000Y105750
X151000Y115750
X151000Y125750
X151000Y135750
X151000Y145750
X151000Y155750
X151000Y165750
X151000Y175750
X151000Y185750
X151000Y195750
X151000Y205750
X151000Y215750
X151000Y225750
X211000Y225750
X211000Y215750
X211000Y205750
X211000Y195750
X211000Y185750
X211000Y175750
X211000Y165750
X211000Y155750
X211000Y145750
X211000Y135750
X211000Y125750
X211000Y115750
X211000Y105750
X211000Y95750
X211000Y85750
X191000Y80750
X191000Y90750
X181000Y90750
X171000Y90750
X171000Y80750
X181000Y80750
T02
X101000Y240750
X112063Y261892
X122063Y261892
X131000Y240750
X161000Y250750
X191000Y250750
X226000Y245750
X241000Y230750
X241000Y215750
X241000Y200750
X241000Y185750
X241000Y170750
X241000Y155750
X241000Y140750
X241000Y125750
X241000Y110750
X241000Y95750
X271000Y95750
X271000Y110750
X271000Y125750
X271000Y140750
X271000Y155750
X271000Y170750
X271000Y185750
X271000Y200750
X271000Y215750
X271000Y230750
X296000Y208191
X306000Y208191
X307024Y156577
X317024Y156577
X306000Y107837
X296000Y107837
X271000Y64136
X261000Y64136
X191039Y40435
X181039Y40435
X119071Y64136
X109071Y64136
X82063Y107837
X72063Y107837
X31000Y85750
X21000Y85750
X55055Y156577
X65055Y156577
X72063Y208191
X82063Y208191
X181039Y280593
X191039Y280593
X226000Y275750
X256000Y261892
X266000Y261892
T03
X300843Y38309
X310685Y38309
X320528Y38309
T04
X46000Y275750
X56000Y275750
X56000Y250750
X56000Y240750
X36000Y240750
X36000Y250750
X116000Y215750
X116000Y195750
X116000Y175750
X116000Y155750
X116000Y135750
X116000Y115750
X116000Y90750
X84900Y35850
X67100Y35850
T05
X62200Y45650
X89800Y45650
T06
X291000Y51301
X329583Y51301
T07
X26000Y45750
X26000Y275750
X351000Y275750
X351000Y45750
M30
